# AST/ASF file generated using VICON BodyLanguage
# -----------------------------------------------
:version 1.10
:name VICON
:units
  mass 1.0
  length 0.45
  angle deg
:documentation
   .ast/.asf automatically generated from VICON data using
   VICON BodyBuilder and BodyLanguage model FoxedUp or BRILLIANT.MOD
:root
   order TX TY TZ RX RY RZ
   axis XYZ
   position 0 0 0  
   orientation 0 0 0 
:bonedata
  begin
     id 1 
     name lhipjoint
     direction 0.710188 -0.616876 0.339259 
     length 2.5669 
     axis 0 0 0  XYZ
  end
  begin
     id 2 
     name lfemur
     direction 0.34202 -0.939693 0  
     length 7.12796  
     axis 0 0 20  XYZ
    dof rx ry rz
    limits (-160.0 20.0)
           (-70.0 70.0)
           (-60.0 70.0)
  end
  begin
     id 3 
     name ltibia
     direction 0.34202 -0.939693 0   
     length 7.58108   
     axis 0 0 20   XYZ
    dof rx
    limits (-10.0 170.0)
  end
  begin
     id 4 
     name lfoot
     direction 0.0669471 -0.183936 0.980656   
     length 2.17365   
     axis -90 7.62852e-016 20   XYZ
    dof rx rz
    limits (-45.0 90.0)
           (-70.0 20.0)
  end
  begin
     id 5 
     name ltoes
     direction 1.53508e-011 -4.21705e-011 1   
     length 1.09427   
     axis -90 7.62852e-016 20   XYZ
    dof rx
    limits (-90.0 20.0)
  end
  begin
     id 6 
     name rhipjoint
     direction -0.700191 -0.625589 0.34405   
     length 2.53115  
     axis 0 0 0  XYZ 
  end
  begin
     id 7 
     name rfemur
     direction -0.34202 -0.939693 0   
     length 7.33006   
     axis 0 0 -20   XYZ
    dof rx ry rz
    limits (-160.0 20.0)
           (-70.0 70.0)
           (-70.0 60.0)
  end
  begin
     id 8 
     name rtibia
     direction -0.34202 -0.939693 0   
     length 7.64926   
     axis 0 0 -20   XYZ
    dof rx
    limits (-10.0 170.0)
 end
 begin
     id 9 
     name rfoot
     direction -0.0688927 -0.189281 0.979503   
     length 2.20493  
     axis -90 -7.62852e-016 -20   XYZ
    dof rx rz
    limits (-45.0 90.0)
           (-20.0 70.0)
  end
  begin
     id 10 
     name rtoes
     direction -1.53567e-011 -4.21933e-011 1   
     length 1.10919   
     axis -90 -7.62852e-016 -20   XYZ
    dof rx
    limits (-90.0 20.0)
  end
  begin
     id 11 
     name lowerback
     direction -0.0167868 0.989873 -0.140959   
     length 2.14596   
     axis 0 0 0   XYZ
    dof rx ry rz
    limits (-20.0 45.0)
           (-30.0 30.0)
           (-30.0 30.0)
  end
  begin
     id 12 
     name upperback
     direction 0.0129109 0.998033 0.0613525   
     length 2.10457   
     axis 0 0 0   XYZ
    dof rx ry rz
    limits (-20.0 45.0)
           (-30.0 30.0)
           (-30.0 30.0)
  end
  begin
     id 13 
     name thorax
     direction 0.0177047 0.991119 0.131797   
     length 2.17652   
     axis 0 0 0   XYZ
    dof rx ry rz
    limits (-20.0 45.0)
           (-30.0 30.0)
           (-30.0 30.0)
  end
  begin
     id 14 
     name lowerneck
     direction -0.0336893 0.997548 0.0613464   
     length 1.8912   
     axis 0 0 0   XYZ
    dof rx ry rz
    limits (-20.0 45.0)
           (-30.0 30.0)
           (-30.0 30.0)
  end
  begin
     id 15 
     name upperneck
     direction 0.0435909 0.997179 -0.0611028   
     length 1.8829   
     axis 0 0 0   XYZ
    dof rx ry rz
    limits (-20.0 45.0)
           (-30.0 30.0)
           (-30.0 30.0)
  end
  begin
     id 16
     name head
     direction 0.0175076 0.999444 -0.0283782  
     length 1.93197  
     axis 0 0 0   XYZ
    dof rx ry rz
    limits (-20.0 45.0)
           (-30.0 30.0)
           (-30.0 30.0)
  end
  begin
     id 17 
     name lclavicle
     direction 0.919164 0.389875 0.0559876  
     length 3.60004  
     axis 0 0 0   XYZ
    dof ry rz
    limits (-20.0 10.0)
           (0.0 20.0)
  end
  begin
     id 18 
     name lhumerus
     direction 1 -4.48958e-011 6.89191e-027   
     length 5.43301   
     axis 180 -30 -90   XYZ
    dof rx ry rz
    limits (-60.0 90.0)
           (-90.0 90.0)
           (-90.0 90.0)
  end
  begin
     id 19
     name lradius
     direction 1 -4.4897e-011 3.24727e-027   
     length 3.15936   
     axis 180 -30 -90   XYZ
    dof rx
    limits (-10.0 170.0)
  end
  begin
     id 20
     name lwrist
     direction 1 -4.4897e-011 9.00228e-027   
     length 1.57968   
     axis -6.29373e-015 90 90   XYZ
    dof ry
    limits (-180.0 0.0)
 end
  begin
     id 21 
     name lhand
     direction 1 -4.48968e-011 1.80042e-026   
     length 0.712827   
     axis -1.14882e-014 90 90   XYZ
    dof rx rz
    limits (-90.0 90.0)
           (-45.0 45.0)
  end
  begin
     id 22 
     name lfingers
     direction 1 -4.49019e-011 3.60267e-026   
     length 0.574699   
     axis -2.29769e-014 90 90   XYZ
    dof rx
    limits (0.0 90.0)
  end
  begin
     id 23
     name lthumb
     direction 0.707107 -6.3498e-011 0.707107   
     length 0.825157   
     axis -90 45 5.37419e-014   XYZ
    dof rx rz
    limits (-45.0 45.0)
           (-45.0 45.0)
  end
  begin
     id 24 
     name rclavicle
     direction -0.890334 0.455305 -0.00132111   
     length 3.51494  
     axis 0 0 0   XYZ 
    dof ry rz
    limits (-10.0 20.0)
           (-20.0 0.0)
  end
  begin
     id 25 
     name rhumerus
     direction -1 -4.48967e-011 5.07175e-028  
     length 5.34194   
     axis 180 30 90   XYZ
    dof rx ry rz
    limits (-90.0 60.0)
           (-90.0 90.0)
           (-90.0 90.0)
  end
  begin
     id 26 
     name rradius
     direction -1 -4.48955e-011 3.30467e-027   
     length 3.19351   
     axis 180 30 90   XYZ
    dof rx
    limits (-10.0 170.0)
  end
  begin
     id 27 
     name rwrist
     direction -1 -4.48968e-011 9.00208e-027   
     length 1.59676   
     axis -6.29373e-015 -90 -90   XYZ
    dof ry
    limits (-180.0 0.0)
  end
  begin
     id 28
     name rhand
     direction -1 -4.49e-011 1.80099e-026   
     length 0.743862   
     axis -1.14882e-014 -90 -90   XYZ
    dof rx rz
    limits (-90.0 90.0)
           (-45.0 45.0)
  end
  begin
     id 29
     name rfingers
     direction -1 -4.49009e-011 3.6023e-026   
     length 0.599721   
     axis -2.29769e-014 -90 -90   XYZ
    dof rx
    limits (0.0 90.0)
  end
  begin
     id 30
     name rthumb
     direction -0.707107 -6.35025e-011 0.707107   
     length 0.861083   
     axis -90 -45 -5.37419e-014   XYZ
    dof rx rz
    limits (-45.0 45.0)
           (-45.0 45.0)
  end
:hierarchy
  begin
    root lhipjoint rhipjoint lowerback
    lhipjoint lfemur
    lfemur ltibia
    ltibia lfoot
    lfoot ltoes
    rhipjoint rfemur
    rfemur rtibia
    rtibia rfoot
    rfoot rtoes
    lowerback upperback
    upperback thorax
    thorax lowerneck lclavicle rclavicle
    lowerneck upperneck
    upperneck head
    lclavicle lhumerus
    lhumerus lradius
    lradius lwrist
    lwrist lhand lthumb
    lhand lfingers
    rclavicle rhumerus
    rhumerus rradius
    rradius rwrist
    rwrist rhand rthumb
    rhand rfingers
  end

#!OML:ASF H:\Martial Arts Walks\Project 1\Capture day 1\Session 1\male.ASF
:FULLY-SPECIFIED
:DEGREES
1301
root -6.75695 14.3969 4.41536 189.066 20.6787 190.843
lowerback 16.0959 0.428118 6.624
upperback -1.05295 2.5775 4.16527
thorax -10.165 1.12256 0.136603
lowerneck -3.54227 4.48455 2.1985
upperneck -0.515908 5.93266 -1.83679
head 0.550214 2.96264 -0.828917
rclavicle 2.29596e-014 -2.78299e-015
rhumerus -66.3624 12.2136 -92.0583
rradius 101.213
rwrist -31.7913
rhand 0.0215845 -35.8915
rfingers 7.12502
rthumb 25.611 -64.1893
lclavicle 2.29596e-014 -2.78299e-015
lhumerus 14.4698 -25.3015 65.2477
lradius 29.0664
lwrist -45.3143
lhand -33.8613 66.0195
lfingers 7.12502
lthumb -7.04569 -815.882
rfemur -2.73168 -14.6247 12.8226
rtibia 48.1925
rfoot -23.6547 -29.2127
rtoes -33.2445
lfemur -63.8586 20.7668 -7.41361
ltibia 67.2247
lfoot -8.76421 0.977528
ltoes -7.995
1302
root -6.71797 14.4041 4.30298 189.197 18.5416 190.869
lowerback 15.1892 0.838131 6.44765
upperback -1.43043 3.02419 4.20782
thorax -10.054 1.34255 0.195337
lowerneck -3.42733 3.54218 1.15494
upperneck 0.0778826 4.70021 -0.523436
head 0.625028 2.35373 -0.274645
rclavicle -3.85145e-014 -3.53837e-014
rhumerus -62.8875 12.8319 -92.285
rradius 103.352
rwrist -32.3504
rhand 3.9743 -31.6603
rfingers 7.12502
rthumb 29.3912 -59.3561
lclavicle -3.85145e-014 -3.53837e-014
lhumerus 14.1209 -30.7176 66.3326
lradius 33.276
lwrist -42.1562
lhand -31.9749 60.9247
lfingers 7.12502
lthumb -5.22452 -810.84
rfemur -1.27331 -15.4176 13.4158
rtibia 46.8222
rfoot -23.2024 -29.907
rtoes -32.9467
lfemur -64.5031 19.3579 -7.61135
ltibia 67.3248
lfoot -8.69923 0.632509
ltoes -8.51643
1303
root -6.68162 14.4285 4.18553 188.955 16.541 190.63
lowerback 14.5965 1.34724 6.00975
upperback -1.77877 3.56526 4.12058
thorax -10.0932 1.61082 0.238383
lowerneck -3.16582 2.5103 -0.150421
upperneck 0.76731 3.34685 1.18861
head 0.730879 1.69066 0.438358
rclavicle -3.24516e-014 -3.97569e-014
rhumerus -58.7829 14.1965 -92.458
rradius 105.757
rwrist -34.8264
rhand 4.35612 -27.6417
rfingers 7.12502
rthumb 29.7556 -55.273
lclavicle -3.24516e-014 -3.97569e-014
lhumerus 13.4188 -35.6856 68.0804
lradius 37.6732
lwrist -36.2497
lhand -29.3084 53.5404
lfingers 7.12502
lthumb -2.64953 -636.496
rfemur 0.421678 -15.7563 13.7695
rtibia 45.4823
rfoot -23.0174 -30.3097
rtoes -32.259
lfemur -64.5609 17.8715 -7.94508
ltibia 67.2803
lfoot -8.90971 0.357136
ltoes -9.09802
1304
root -6.64823 14.4602 4.06884 188.595 14.5907 190.163
lowerback 14.1551 1.88406 5.30505
upperback -2.13411 4.10309 3.97227
thorax -10.2446 1.88672 0.365482
lowerneck -2.79192 1.37667 -1.56473
upperneck 1.43231 1.84992 2.88102
head 0.865239 0.957673 1.18014
rclavicle 1.07841e-014 1.2921e-014
rhumerus -54.0078 16.282 -92.0321
rradius 108.357
rwrist -37.4158
rhand 5.16558 -27.5464
rfingers 7.12502
rthumb 30.5279 -55.0368
lclavicle 1.07841e-014 1.2921e-014
lhumerus 12.0349 -40.0405 70.5664
lradius 42.0905
lwrist -30.2118
lhand -26.6989 46.5695
lfingers 7.12502
lthumb -0.129239 -643.451
rfemur 2.11181 -15.597 14.0444
rtibia 44.2622
rfoot -22.932 -30.7478
rtoes -31.1799
lfemur -64.3891 16.2643 -8.44478
ltibia 67.1024
lfoot -9.21565 0.249414
ltoes -8.62104
1305
root -6.62039 14.49 3.94951 188.169 12.6085 189.558
lowerback 13.6649 2.36543 4.51306
upperback -2.40238 4.54805 3.81536
thorax -10.2873 2.12976 0.558698
lowerneck -2.26878 0.244644 -3.10963
upperneck 1.94152 0.346588 4.40633
head 0.97929 0.216627 1.91822
rclavicle -4.74847e-014 1.03368e-014
rhumerus -48.3152 19.1199 -90.6393
rradius 110.581
rwrist -38.4406
rhand 6.28585 -28.0867
rfingers 7.12502
rthumb 31.5957 -55.3729
lclavicle -4.74847e-014 1.03368e-014
lhumerus 9.81263 -43.5197 73.8826
lradius 46.6646
lwrist -23.9996
lhand -24.4581 42.8662
lfingers 7.12502
lthumb 2.03495 -647.164
rfemur 3.7139 -15.0968 14.2895
rtibia 43.3723
rfoot -22.1595 -31.5802
rtoes -30.3652
lfemur -64.0896 14.4604 -9.02074
ltibia 66.8577
lfoot -9.2827 0.151818
ltoes -8.6869
1306
root -6.59444 14.5219 3.83267 187.753 10.8948 188.926
lowerback 13.1798 2.89247 3.63122
upperback -2.548 5.04224 3.67095
thorax -10.2149 2.40798 0.810242
lowerneck -1.77606 -0.851625 -4.63778
upperneck 2.34443 -1.12091 5.59209
head 1.1114 -0.514967 2.56847
rclavicle -6.19711e-014 -2.74323e-014
rhumerus -41.3952 22.4371 -88.2197
rradius 111.912
rwrist -37.6261
rhand 9.30131 -30.6967
rfingers 7.12502
rthumb 34.4634 -57.3763
lclavicle -6.19711e-014 -2.74323e-014
lhumerus 6.69822 -46.0824 77.9488
lradius 51.338
lwrist -17.7784
lhand -23.7139 42.6692
lfingers 7.12502
lthumb 2.75369 -647.369
rfemur 4.90536 -14.1619 14.5888
rtibia 42.9924
rfoot -20.276 -32.7349
rtoes -30.2078
lfemur -63.6638 12.8222 -9.5986
ltibia 66.6027
lfoot -9.4136 -0.11077
ltoes -8.34235
